<svg width="120" height="20.5" viewBox="0 0 120 20.5" xmlns="http://www.w3.org/2000/svg"><g id="svgGroup" stroke-linecap="round" fill-rule="evenodd" font-size="9pt" stroke="#000" stroke-width="0.25mm" fill="#000" style="stroke:#000;stroke-width:0.25mm;fill:#000"><path d="M 50.85 15.5 L 42.017 15.5 L 48.033 6.55 Q 48.322 6.111 48.486 5.753 A 3.172 3.172 0 0 0 48.608 5.45 A 3.219 3.219 0 0 0 48.722 5.027 A 2.34 2.34 0 0 0 48.767 4.583 A 2.512 2.512 0 0 0 48.482 3.387 A 2.587 2.587 0 0 0 48 2.75 A 2.569 2.569 0 0 0 46.138 2 A 3.294 3.294 0 0 0 46.133 2 A 2.661 2.661 0 0 0 45.047 2.218 A 2.569 2.569 0 0 0 44.275 2.75 A 2.476 2.476 0 0 0 43.517 4.549 A 3.074 3.074 0 0 0 43.517 4.583 A 2.438 2.438 0 0 0 44.323 6.417 A 3.398 3.398 0 0 0 44.533 6.6 L 42.25 6.6 Q 41.717 5.583 41.717 4.583 A 4.222 4.222 0 0 1 41.969 3.111 A 3.912 3.912 0 0 1 42.317 2.4 A 4.393 4.393 0 0 1 43.925 0.867 A 4.463 4.463 0 0 1 46.149 0.3 L 46.15 0.3 A 4.512 4.512 0 0 1 47.853 0.619 A 4.308 4.308 0 0 1 48.367 0.867 A 4.412 4.412 0 0 1 49.967 2.4 A 4.019 4.019 0 0 1 50.564 4.423 A 4.836 4.836 0 0 1 50.567 4.583 A 4.378 4.378 0 0 1 50.333 5.992 Q 50.152 6.529 49.759 7.153 A 9.065 9.065 0 0 1 49.517 7.517 L 45.183 13.8 L 50.85 13.8 L 50.85 15.5 Z M 112.5 20.5 L 110.55 20.5 L 113.8 14.033 L 109.567 5.5 L 111.6 5.5 L 113.733 9.833 Q 114.017 10.417 114.283 10.983 Q 114.55 11.55 114.817 12.35 A 24.048 24.048 0 0 1 115.026 11.782 Q 115.133 11.502 115.236 11.257 A 12.881 12.881 0 0 1 115.358 10.975 A 19.658 19.658 0 0 1 115.917 9.833 L 118.083 5.5 L 120 5.5 L 112.5 20.5 Z M 54.75 15.5 L 52.833 15.5 L 59.183 0 L 59.217 0 L 65.567 15.5 L 63.55 15.5 L 61.783 11.05 L 56.533 11.05 L 54.75 15.5 Z M 25 15.5 L 22.933 15.5 L 26.45 10.2 L 23.317 5.5 L 25.417 5.5 L 26.383 7.033 A 24.235 24.235 0 0 1 27.008 8.042 A 9.271 9.271 0 0 1 27.55 9.117 A 10.803 10.803 0 0 1 28.108 8.05 Q 28.417 7.533 28.733 7.033 L 29.683 5.5 L 31.75 5.5 L 28.617 10.2 L 32.133 15.5 L 30 15.5 L 28.633 13.317 Q 28.333 12.833 28.033 12.342 A 8.527 8.527 0 0 1 27.5 11.317 A 8.527 8.527 0 0 1 26.967 12.342 Q 26.667 12.833 26.367 13.317 L 25 15.5 Z M 4 2.2 L 0 2.2 L 0 0.5 L 9.9 0.5 L 9.9 2.2 L 5.9 2.2 L 5.9 15.5 L 4 15.5 L 4 2.2 Z M 21.733 10.267 L 21.733 11 L 15.2 11 A 11.958 11.958 0 0 1 14.317 10.967 Q 13.867 10.933 13.433 10.867 Q 13.617 12.2 14.642 13.1 Q 15.667 14 17.083 14 Q 18.033 14 18.85 13.567 A 3.729 3.729 0 0 0 19.968 12.675 A 3.574 3.574 0 0 0 20.167 12.417 L 20.667 14.467 A 5.398 5.398 0 0 1 19.111 15.344 A 6.098 6.098 0 0 1 19.025 15.375 A 5.862 5.862 0 0 1 17.075 15.7 A 6.263 6.263 0 0 1 17.067 15.7 A 6.009 6.009 0 0 1 15.342 15.46 A 5.258 5.258 0 0 1 14.258 15 A 5.147 5.147 0 0 1 12.308 13.092 A 5.204 5.204 0 0 1 11.601 10.492 A 6.16 6.16 0 0 1 11.6 10.4 A 5.053 5.053 0 0 1 12.017 8.344 A 4.904 4.904 0 0 1 12.283 7.825 Q 12.967 6.667 14.125 5.983 A 4.942 4.942 0 0 1 16.683 5.3 A 5.009 5.009 0 0 1 19.217 5.958 A 5.061 5.061 0 0 1 21.05 7.733 A 4.679 4.679 0 0 1 21.725 9.96 A 5.679 5.679 0 0 1 21.733 10.267 Z M 86.9 14.433 L 87.4 12.467 A 3.654 3.654 0 0 0 88.41 13.581 A 3.549 3.549 0 0 0 88.6 13.708 A 2.905 2.905 0 0 0 90.167 14.167 Q 90.967 14.167 91.367 13.775 A 1.287 1.287 0 0 0 91.766 12.843 A 1.589 1.589 0 0 0 91.767 12.817 Q 91.767 12.167 91.342 11.867 A 4.609 4.609 0 0 0 91.048 11.675 Q 90.907 11.59 90.777 11.53 A 2.08 2.08 0 0 0 90.583 11.45 L 89.233 10.933 A 5.457 5.457 0 0 1 88.944 10.804 Q 88.81 10.74 88.662 10.662 A 12.028 12.028 0 0 1 88.35 10.492 A 2.603 2.603 0 0 1 87.676 9.939 A 3.223 3.223 0 0 1 87.45 9.65 A 2.012 2.012 0 0 1 87.157 8.994 Q 87.086 8.721 87.071 8.4 A 3.835 3.835 0 0 1 87.067 8.217 A 2.89 2.89 0 0 1 87.45 6.75 A 2.796 2.796 0 0 1 88.533 5.692 A 3.032 3.032 0 0 1 89.533 5.351 A 4.026 4.026 0 0 1 90.183 5.3 A 4.7 4.7 0 0 1 91.196 5.415 A 5.823 5.823 0 0 1 91.75 5.567 A 3.125 3.125 0 0 1 93.133 6.467 L 92.633 8.433 Q 92.233 7.7 91.55 7.267 A 2.83 2.83 0 0 0 90.788 6.922 A 2.446 2.446 0 0 0 90.133 6.833 Q 89.485 6.833 89.1 7.178 A 1.247 1.247 0 0 0 89.058 7.217 A 1.372 1.372 0 0 0 88.794 7.568 A 1.145 1.145 0 0 0 88.667 8.1 A 1.083 1.083 0 0 0 88.933 8.817 A 1.453 1.453 0 0 0 89.23 9.08 Q 89.442 9.224 89.733 9.333 L 91.083 9.85 Q 91.33 9.94 91.655 10.104 A 10.368 10.368 0 0 1 91.992 10.283 A 2.83 2.83 0 0 1 92.699 10.845 A 3.52 3.52 0 0 1 92.95 11.15 Q 93.367 11.717 93.367 12.683 A 3.143 3.143 0 0 1 93.199 13.73 A 2.689 2.689 0 0 1 92.425 14.867 A 3.282 3.282 0 0 1 90.654 15.66 A 4.429 4.429 0 0 1 90.05 15.7 A 4.611 4.611 0 0 1 89.153 15.608 A 6.125 6.125 0 0 1 88.408 15.408 Q 87.533 15.117 86.9 14.433 Z M 37.1 15.5 L 35.3 15.5 L 35.3 7 L 33.033 7 L 33.033 5.5 L 35.35 5.5 L 35.35 2.167 L 37.05 2.167 L 37.05 5.5 L 39.533 5.5 L 39.533 7 L 37.1 7 L 37.1 15.5 Z M 77.933 15.5 L 76.133 15.5 L 76.133 7 L 73.867 7 L 73.867 5.5 L 76.183 5.5 L 76.183 2.167 L 77.883 2.167 L 77.883 5.5 L 80.367 5.5 L 80.367 7 L 77.933 7 L 77.933 15.5 Z M 98.933 15.5 L 97.133 15.5 L 97.133 7 L 94.867 7 L 94.867 5.5 L 97.183 5.5 L 97.183 2.167 L 98.883 2.167 L 98.883 5.5 L 101.367 5.5 L 101.367 7 L 98.933 7 L 98.933 15.5 Z M 69.267 15.5 L 67.467 15.5 L 67.467 5.5 L 69.133 5.5 L 69.133 7.333 A 4.046 4.046 0 0 1 70.55 5.925 Q 71.433 5.4 72.65 5.4 L 73.1 7.2 Q 72.783 7.1 72.367 7.1 A 3.569 3.569 0 0 0 71.357 7.236 A 2.759 2.759 0 0 0 70.117 7.992 A 2.897 2.897 0 0 0 69.441 9.194 Q 69.267 9.786 69.267 10.533 L 69.267 15.5 Z M 105.267 15.5 L 103.467 15.5 L 103.467 5.5 L 105.133 5.5 L 105.133 7.333 A 4.046 4.046 0 0 1 106.55 5.925 Q 107.433 5.4 108.65 5.4 L 109.1 7.2 Q 108.783 7.1 108.367 7.1 A 3.569 3.569 0 0 0 107.357 7.236 A 2.759 2.759 0 0 0 106.117 7.992 A 2.897 2.897 0 0 0 105.441 9.194 Q 105.267 9.786 105.267 10.533 L 105.267 15.5 Z M 84.267 15.5 L 82.467 15.5 L 82.467 5.5 L 84.267 5.5 L 84.267 15.5 Z M 15.2 9.5 L 18.517 9.5 Q 18.883 9.5 19.242 9.525 A 34.631 34.631 0 0 1 19.967 9.583 A 3.228 3.228 0 0 0 18.8 7.658 Q 17.867 6.9 16.683 6.9 A 3.126 3.126 0 0 0 14.55 7.708 A 3.689 3.689 0 0 0 13.649 8.877 A 3.523 3.523 0 0 0 13.383 9.65 Q 14.283 9.5 15.2 9.5 Z M 58.35 6.5 L 57.167 9.467 L 61.15 9.467 L 59.967 6.5 Q 59.75 5.933 59.55 5.383 Q 59.35 4.833 59.15 4.067 A 26.245 26.245 0 0 1 59.002 4.61 Q 58.881 5.036 58.767 5.375 A 21.422 21.422 0 0 1 58.464 6.211 A 24.648 24.648 0 0 1 58.35 6.5 Z M 82.528 3.361 A 1.156 1.156 0 0 0 83.367 3.7 A 1.501 1.501 0 0 0 83.399 3.7 A 1.144 1.144 0 0 0 84.225 3.35 A 1.202 1.202 0 0 0 84.452 3.028 A 1.209 1.209 0 0 0 84.567 2.5 Q 84.567 1.983 84.225 1.642 A 1.132 1.132 0 0 0 83.811 1.374 A 1.281 1.281 0 0 0 83.367 1.3 Q 82.867 1.3 82.517 1.642 A 1.13 1.13 0 0 0 82.246 2.047 A 1.25 1.25 0 0 0 82.167 2.5 A 1.423 1.423 0 0 0 82.167 2.516 A 1.156 1.156 0 0 0 82.517 3.35 A 1.378 1.378 0 0 0 82.528 3.361 Z" vector-effect="non-scaling-stroke"/></g></svg>